<?xml version="1.0" encoding="UTF-8"?>
<svg id="a" xmlns="http://www.w3.org/2000/svg" version="1.1" xmlns:xlink="http://www.w3.org/1999/xlink" viewBox="0 0 1000.1 229.3">
  <!-- Generator: Adobe Illustrator 29.5.1, SVG Export Plug-In . SVG Version: 2.1.0 Build 141)  -->
  <defs>
    <style>
      .st0 {
        fill: url(#_Градієнт_без_назви);
      }

      .st1 {
        fill: #cc003a;
      }

      .st2 {
        fill: #fff;
      }

      .st3 {
        fill: url(#_Градієнт_без_назви_2);
      }

      .st4 {
        isolation: isolate;
      }

      .st5 {
        fill: #3d0923;
      }

      .st6 {
        fill: #ed8a14;
      }
    </style>
    <linearGradient id="_Градієнт_без_назви" data-name="Градієнт без назви" x1="136.8" y1="-52.3" x2="136.8" y2="166.2" gradientTransform="translate(0 50)" gradientUnits="userSpaceOnUse">
      <stop offset="0" stop-color="#350414"/>
      <stop offset="0" stop-color="#3e0418"/>
      <stop offset=".2" stop-color="#570723"/>
      <stop offset=".3" stop-color="#810b35"/>
      <stop offset=".5" stop-color="#ba114e"/>
      <stop offset=".6" stop-color="#d4145a"/>
      <stop offset=".9" stop-color="#cc003a"/>
      <stop offset="1" stop-color="#c1272d"/>
    </linearGradient>
    <linearGradient id="_Градієнт_без_назви_2" data-name="Градієнт без назви 2" x1="136.8" y1="-38.4" x2="136.8" y2="180.1" gradientTransform="translate(0 50)" gradientUnits="userSpaceOnUse">
      <stop offset="0" stop-color="#2d0214"/>
      <stop offset="0" stop-color="#350116"/>
      <stop offset=".2" stop-color="#4c011b"/>
      <stop offset=".3" stop-color="#710124"/>
      <stop offset=".5" stop-color="#a50030"/>
      <stop offset=".6" stop-color="#cc003a"/>
      <stop offset=".9" stop-color="#8e0923"/>
      <stop offset="1" stop-color="#8c0e2f"/>
    </linearGradient>
  </defs>
  <g class="st4">
    <path d="M326.5,52.7h19.5v106.2h32v17.7h-51.5V52.7Z"/>
  </g>
  <g class="st4">
    <path d="M412.7,104.9h26.7v17.7h-26.7v36.3h33.6v17.7h-53.1V52.7h53.1v17.7h-33.6v34.5Z"/>
  </g>
  <g class="st4">
    <path d="M493.2,153.8h.4l14.7-101.1h17.9l-19.1,123.9h-29l-19.1-123.9h19.6l14.7,101.1Z"/>
    <path d="M554.6,104.9h26.7v17.7h-26.7v36.3h33.6v17.7h-53.1V52.7h53.1v17.7h-33.6v34.5Z"/>
    <path d="M600.3,52.7h19.5v106.2h32v17.7h-51.5V52.7Z"/>
  </g>
  <g class="st4">
    <path class="st6" d="M703.6,107.6h27.3v39.3c0,19.8-9.9,31.2-29,31.2s-29-11.3-29-31.2v-64.4c0-19.8,9.9-31.2,29-31.2s29,11.3,29,31.2v12h-18.4v-13.3c0-8.8-3.9-12.2-10.1-12.2s-10.1,3.4-10.1,12.2v66.9c0,8.8,3.9,12,10.1,12s10.1-3.2,10.1-12v-22.8h-8.9v-17.7Z"/>
    <path class="st6" d="M762,52.7v95.6c0,8.8,3.9,12,10.1,12s10.1-3.2,10.1-12V52.7h18.4v94.3c0,19.8-9.9,31.2-29,31.2s-29-11.3-29-31.2V52.7h19.5Z"/>
    <path class="st6" d="M813.9,52.7h19.5v123.9h-19.5V52.7Z"/>
    <path class="st6" d="M847.5,52.7h30.8c19.5,0,29,10.8,29,30.6v62.7c0,19.8-9.6,30.6-29,30.6h-30.8V52.7ZM867,70.4v88.5h11c6.2,0,9.9-3.2,9.9-12v-64.4c0-8.9-3.7-12-9.9-12h-11Z"/>
    <path class="st6" d="M973.7,52.7v17.3l-37,88.9h37v17.7h-57v-17.3l37-88.9h-35.2v-17.7h55.2Z"/>
  </g>
  <g class="st4">
    <path class="st2" d="M326.5,52.7h19.5v106.2h32v17.7h-51.5V52.7Z"/>
  </g>
  <g class="st4">
    <path class="st2" d="M412.7,104.9h26.7v17.7h-26.7v36.3h33.6v17.7h-53.1V52.7h53.1v17.7h-33.6v34.5Z"/>
  </g>
  <g class="st4">
    <path class="st2" d="M493.2,153.8h.4l14.7-101.1h17.9l-19.1,123.9h-29l-19.1-123.9h19.6l14.7,101.1h-.1Z"/>
    <path class="st2" d="M554.6,104.9h26.7v17.7h-26.7v36.3h33.6v17.7h-53.1V52.7h53.1v17.7h-33.6v34.5Z"/>
    <path class="st2" d="M600.3,52.7h19.5v106.2h32v17.7h-51.5V52.7Z"/>
  </g>
  <g class="st4">
    <path class="st1" d="M703.6,107.6h27.3v39.3c0,19.8-9.9,31.1-29,31.1s-29-11.3-29-31.1v-64.4c0-19.8,9.9-31.1,29-31.1s29,11.3,29,31.1v12h-18.4v-13.3c0-8.8-3.9-12.2-10.1-12.2s-10.1,3.4-10.1,12.2v66.9c0,8.8,3.9,12,10.1,12s10.1-3.2,10.1-12v-22.8h-8.8v-17.7h0Z"/>
    <path class="st1" d="M762,52.7v95.6c0,8.8,3.9,12,10.1,12s10.1-3.2,10.1-12V52.7h18.4v94.3c0,19.8-9.9,31.1-29,31.1s-29-11.3-29-31.1V52.7h19.5,0Z"/>
    <path class="st1" d="M813.9,52.7h19.5v123.9h-19.5V52.7Z"/>
    <path class="st1" d="M847.5,52.7h30.8c19.5,0,29,10.8,29,30.6v62.7c0,19.8-9.6,30.6-29,30.6h-30.8V52.7ZM867,70.4v88.5h11c6.2,0,9.9-3.2,9.9-12v-64.4c0-8.8-3.7-12-9.9-12h-11Z"/>
    <path class="st1" d="M973.7,52.7v17.3l-37,88.8h37v17.7h-57v-17.3l37-88.8h-35.2v-17.7s55.2,0,55.2,0Z"/>
  </g>
  <polyline class="st5" points="255 2 255 30.1 136.6 127.1 18.6 29.4 18.6 2 136.6 98.7"/>
  <polygon class="st5" points="0 38.1 136.6 152.8 273.6 38.1 273.6 74.3 235.4 106.7 235.7 127.3 136.4 220.7 37.8 127.6 38.2 105.7 0 74.7 0 38.1"/>
  <polygon class="st0" points="18.6 8.3 136.6 105 255 8.3 255 36.4 136.6 133.4 18.6 35.7 18.6 8.3"/>
  <polygon class="st3" points="0 44.7 136.6 159.4 273.6 44.7 273.6 81 235.4 113.3 235.7 133.9 136.4 227.3 37.8 134.2 38.2 112.3 0 81.3 0 44.7"/>
</svg>