<?xml version="1.0" encoding="UTF-8"?><svg id="a" xmlns="http://www.w3.org/2000/svg" xmlns:xlink="http://www.w3.org/1999/xlink" viewBox="0 0 1000.07 229.33"><defs><style>.d{font-family:Bebas-Regular, Bebas;font-size:176.99px;}.e,.f{fill:#fff;}.g{fill:url(#c);}.f,.h{letter-spacing:0em;}.i{fill:#ed8a14;}.i,.j{letter-spacing:0em;}.k{fill:url(#b);}.j{fill:#cc003a;}.l{fill:#3d0923;}</style><linearGradient id="b" x1="136.79" y1="-2.34" x2="136.79" y2="216.18" gradientUnits="userSpaceOnUse"><stop offset="0" stop-color="#350414"/><stop offset=".07" stop-color="#3e0418"/><stop offset=".18" stop-color="#570723"/><stop offset=".33" stop-color="#810b35"/><stop offset=".5" stop-color="#ba114e"/><stop offset=".57" stop-color="#d4145a"/><stop offset=".87" stop-color="#cc003a"/><stop offset=".99" stop-color="#c1272d"/></linearGradient><linearGradient id="c" x1="136.79" y1="11.58" x2="136.79" y2="230.11" gradientUnits="userSpaceOnUse"><stop offset="0" stop-color="#2d0214"/><stop offset=".07" stop-color="#350116"/><stop offset=".18" stop-color="#4c011b"/><stop offset=".31" stop-color="#710124"/><stop offset=".46" stop-color="#a50030"/><stop offset=".57" stop-color="#cc003a"/><stop offset=".87" stop-color="#8e0923"/><stop offset=".99" stop-color="#8c0e2f"/></linearGradient></defs><text class="d" transform="translate(319.4 176.61)"><tspan x="0" y="0">L</tspan><tspan class="h" x="66.72" y="0">e</tspan><tspan x="137.52" y="0">vel</tspan><tspan class="i" x="347.95" y="0">Guidz</tspan></text><text class="d" transform="translate(319.4 176.61)"><tspan class="e" x="0" y="0">L</tspan><tspan class="f" x="66.72" y="0">e</tspan><tspan class="e" x="137.52" y="0">vel</tspan><tspan class="j" x="347.95" y="0">Guidz</tspan></text><polyline class="l" points="255 2 255 30.09 136.65 127.11 18.58 29.44 18.58 2 136.65 98.69"/><polygon class="l" points="0 38.09 136.65 152.75 273.58 38.09 273.58 74.35 235.38 106.69 235.73 127.27 136.36 220.69 37.85 127.6 38.2 105.71 0 74.68 0 38.09"/><polygon class="k" points="18.58 8.27 136.65 104.96 255 8.27 255 36.36 136.65 133.38 18.58 35.71 18.58 8.27"/><polygon class="g" points="0 44.73 136.65 159.39 273.58 44.73 273.58 80.99 235.38 113.33 235.73 133.91 136.36 227.33 37.85 134.24 38.2 112.35 0 81.32 0 44.73"/></svg>