<?xml version="1.0" encoding="UTF-8"?><svg id="a" xmlns="http://www.w3.org/2000/svg" xmlns:xlink="http://www.w3.org/1999/xlink" viewBox="0 0 1000.07 225.33"><defs><style>.d,.e{fill:#141313;}.f{font-family:Bebas-Regular, Bebas;font-size:176.99px;}.g{fill:url(#c);}.e{letter-spacing:0em;}.h{fill:url(#b);}.i{fill:#cc003a;letter-spacing:0em;}.j{fill:#3d0923;}</style><linearGradient id="b" x1="136.79" y1="-4.34" x2="136.79" y2="214.18" gradientUnits="userSpaceOnUse"><stop offset="0" stop-color="#350414"/><stop offset=".07" stop-color="#3e0418"/><stop offset=".18" stop-color="#570723"/><stop offset=".33" stop-color="#810b35"/><stop offset=".5" stop-color="#ba114e"/><stop offset=".57" stop-color="#d4145a"/><stop offset=".87" stop-color="#cc003a"/><stop offset=".99" stop-color="#c1272d"/></linearGradient><linearGradient id="c" x1="136.79" y1="9.58" x2="136.79" y2="228.11" gradientUnits="userSpaceOnUse"><stop offset="0" stop-color="#2d0214"/><stop offset=".07" stop-color="#350116"/><stop offset=".18" stop-color="#4c011b"/><stop offset=".31" stop-color="#710124"/><stop offset=".46" stop-color="#a50030"/><stop offset=".57" stop-color="#cc003a"/><stop offset=".87" stop-color="#8e0923"/><stop offset=".99" stop-color="#8c0e2f"/></linearGradient></defs><text class="f" transform="translate(319.4 178.86)"><tspan class="d" x="0" y="0">L</tspan><tspan class="e" x="66.72" y="0">e</tspan><tspan class="d" x="137.52" y="0">vel</tspan><tspan class="i" x="347.95" y="0">Guidz</tspan></text><polygon class="j" points="18.58 0 136.65 96.69 255 0 255 28.09 136.65 125.11 18.58 27.44 18.58 0"/><polygon class="j" points="0 36.09 136.65 150.75 273.58 36.09 273.58 72.35 235.38 104.69 235.73 125.27 136.36 218.69 37.85 125.6 38.2 103.71 0 72.68 0 36.09"/><polygon class="h" points="18.58 6.27 136.65 102.96 255 6.27 255 34.36 136.65 131.38 18.58 33.71 18.58 6.27"/><polygon class="g" points="0 42.73 136.65 157.39 273.58 42.73 273.58 78.99 235.38 111.33 235.73 131.91 136.36 225.33 37.85 132.24 38.2 110.35 0 79.32 0 42.73"/></svg>